<svg viewBox="0 0 64 64" xmlns="http://www.w3.org/2000/svg">
  <defs>
    <linearGradient id="g" x1="0" y1="0" x2="1" y2="1">
      <stop offset="0%" stop-color="#ff6b6b"/>
      <stop offset="55%" stop-color="#ec4899"/>
      <stop offset="100%" stop-color="#a855f7"/>
    </linearGradient>
    <linearGradient id="g2" x1="0" y1="0" x2="1" y2="1">
      <stop offset="0%" stop-color="#fb7185"/>
      <stop offset="100%" stop-color="#f43f5e"/>
    </linearGradient>
  </defs>
  <path d="M22 6 C 13 6, 6 13, 6 22 C 6 32, 22 50, 22 50 C 22 50, 38 32, 38 22 C 38 13, 31 6, 22 6 Z" fill="url(#g2)" opacity="0.55"/>
  <path d="M42 14 C 33 14, 26 21, 26 30 C 26 40, 42 58, 42 58 C 42 58, 58 40, 58 30 C 58 21, 51 14, 42 14 Z" fill="url(#g)"/>
  <path d="M42 38 C 42 38, 35 33, 35 28 C 35 25.5, 37 24, 39 24 C 40.5 24, 42 25, 42 25 C 42 25, 43.5 24, 45 24 C 47 24, 49 25.5, 49 28 C 49 33, 42 38, 42 38 Z" fill="white"/>
</svg>
